ffmpeg version 2021-12-09-git-b9f4c1231f-essentials_build-www.gyan.dev Copyright (c) 2000-2021 the FFmpeg developers
  built with gcc 11.2.0 (Rev2, Built by MSYS2 project)
  configuration: --enable-gpl --enable-version3 --enable-static --disable-w32threads --disable-autodetect --enable-fontconfig --enable-iconv --enable-gnutls --enable-libxml2 --enable-gmp --enable-lzma --enable-zlib --enable-libsrt --enable-libssh --enable-libzmq --enable-avisynth --enable-sdl2 --enable-libwebp --enable-libx264 --enable-libx265 --enable-libxvid --enable-libaom --enable-libopenjpeg --enable-libvpx --enable-libass --enable-libfreetype --enable-libfribidi --enable-libvidstab --enable-libvmaf --enable-libzimg --enable-amf --enable-cuda-llvm --enable-cuvid --enable-ffnvcodec --enable-nvdec --enable-nvenc --enable-d3d11va --enable-dxva2 --enable-libmfx --enable-libgme --enable-libopenmpt --enable-libopencore-amrwb --enable-libmp3lame --enable-libtheora --enable-libvo-amrwbenc --enable-libgsm --enable-libopencore-amrnb --enable-libopus --enable-libspeex --enable-libvorbis --enable-librubberband
  libavutil      57. 10.101 / 57. 10.101
  libavcodec     59. 14.100 / 59. 14.100
  libavformat    59.  9.102 / 59.  9.102
  libavdevice    59.  0.101 / 59.  0.101
  libavfilter     8. 19.100 /  8. 19.100
  libswscale      6.  1.101 /  6.  1.101
  libswresample   4.  0.100 /  4.  0.100
  libpostproc    56.  0.100 / 56.  0.100
Splitting the commandline.
Reading option '-v' ... matched as option 'v' (set logging level) with argument 'debug'.
Reading option '-nostdin' ... matched as option 'stdin' (enable or disable interaction on standard input) with argument 0.
Reading option '-progress' ... matched as option 'progress' (write program-readable progress information) with argument 'C:/Users/eddari/AppData/Local/Temp/KritaFFmpegProgress.SvDBxb'.
Reading option '-r' ... matched as option 'r' (set frame rate (Hz value, fraction or abbreviation)) with argument '24'.
Reading option '-start_number' ... matched as AVOption 'start_number' with argument '0'.
Reading option '-i' ... matched as input url with argument 'C:/Users/eddari/Desktop/projects/Connect4/Assets/frame%04d.png'.
Reading option '-vf' ... matched as option 'vf' (set video filters) with argument 'palettegen'.
Reading option '-y' ... matched as option 'y' (overwrite output files) with argument '1'.
Reading option 'C:/Users/eddari/Desktop/projects/Connect4/Assets/palette.png' ... matched as output url.
Finished splitting the commandline.
Parsing a group of options: global .
Applying option v (set logging level) with argument debug.
Applying option nostdin (enable or disable interaction on standard input) with argument 0.
Applying option progress (write program-readable progress information) with argument C:/Users/eddari/AppData/Local/Temp/KritaFFmpegProgress.SvDBxb.
[file @ 000001cb7dccbb40] Setting default whitelist 'file,crypto,data'
Applying option y (overwrite output files) with argument 1.
Successfully parsed a group of options.
Parsing a group of options: input url C:/Users/eddari/Desktop/projects/Connect4/Assets/frame%04d.png.
Applying option r (set frame rate (Hz value, fraction or abbreviation)) with argument 24.
Successfully parsed a group of options.
Opening an input file: C:/Users/eddari/Desktop/projects/Connect4/Assets/frame%04d.png.
[image2 @ 000001cb7dd0c040] Opening 'C:/Users/eddari/Desktop/projects/Connect4/Assets/frame0000.png' for reading
[file @ 000001cb7dd0f280] Setting default whitelist 'file,crypto,data'
[AVIOContext @ 000001cb7dd17440] Statistics: 36715 bytes read, 0 seeks
[image2 @ 000001cb7dd0c040] Opening 'C:/Users/eddari/Desktop/projects/Connect4/Assets/frame0001.png' for reading
[file @ 000001cb7dd20700] Setting default whitelist 'file,crypto,data'
[AVIOContext @ 000001cb7dd2ec80] Statistics: 36715 bytes read, 0 seeks
[image2 @ 000001cb7dd0c040] Opening 'C:/Users/eddari/Desktop/projects/Connect4/Assets/frame0002.png' for reading
[file @ 000001cb7dd37fc0] Setting default whitelist 'file,crypto,data'
[AVIOContext @ 000001cb7dd2ec80] Statistics: 37203 bytes read, 0 seeks
[image2 @ 000001cb7dd0c040] Opening 'C:/Users/eddari/Desktop/projects/Connect4/Assets/frame0003.png' for reading
[file @ 000001cb7dd41400] Setting default whitelist 'file,crypto,data'
[AVIOContext @ 000001cb7dd2ec80] Statistics: 43616 bytes read, 0 seeks
[image2 @ 000001cb7dd0c040] Opening 'C:/Users/eddari/Desktop/projects/Connect4/Assets/frame0004.png' for reading
[file @ 000001cb7dd207c0] Setting default whitelist 'file,crypto,data'
[AVIOContext @ 000001cb7dd2ec80] Statistics: 55189 bytes read, 0 seeks
[image2 @ 000001cb7dd0c040] Opening 'C:/Users/eddari/Desktop/projects/Connect4/Assets/frame0005.png' for reading
[file @ 000001cb7dd209c0] Setting default whitelist 'file,crypto,data'
[AVIOContext @ 000001cb7dd2ec80] Statistics: 81524 bytes read, 0 seeks
[image2 @ 000001cb7dd0c040] Opening 'C:/Users/eddari/Desktop/projects/Connect4/Assets/frame0006.png' for reading
[file @ 000001cb7dd20b80] Setting default whitelist 'file,crypto,data'
[AVIOContext @ 000001cb7dd2ec80] Statistics: 114968 bytes read, 0 seeks
[image2 @ 000001cb7dd0c040] Opening 'C:/Users/eddari/Desktop/projects/Connect4/Assets/frame0007.png' for reading
[file @ 000001cb7dd20d80] Setting default whitelist 'file,crypto,data'
[AVIOContext @ 000001cb7dd2ec80] Statistics: 144053 bytes read, 0 seeks
[image2 @ 000001cb7dd0c040] Opening 'C:/Users/eddari/Desktop/projects/Connect4/Assets/frame0008.png' for reading
[file @ 000001cb7dd20d80] Setting default whitelist 'file,crypto,data'
[AVIOContext @ 000001cb7dd2ec80] Statistics: 171361 bytes read, 0 seeks
[image2 @ 000001cb7dd0c040] Opening 'C:/Users/eddari/Desktop/projects/Connect4/Assets/frame0009.png' for reading
[file @ 000001cb7dd20d80] Setting default whitelist 'file,crypto,data'
[AVIOContext @ 000001cb7dd2ec80] Statistics: 210373 bytes read, 0 seeks
[image2 @ 000001cb7dd0c040] Opening 'C:/Users/eddari/Desktop/projects/Connect4/Assets/frame0010.png' for reading
[file @ 000001cb7dd20d80] Setting default whitelist 'file,crypto,data'
[AVIOContext @ 000001cb7dd2ec80] Statistics: 230151 bytes read, 0 seeks
[image2 @ 000001cb7dd0c040] Opening 'C:/Users/eddari/Desktop/projects/Connect4/Assets/frame0011.png' for reading
[file @ 000001cb7dd20d80] Setting default whitelist 'file,crypto,data'
[AVIOContext @ 000001cb7dd2ec80] Statistics: 256221 bytes read, 0 seeks
[image2 @ 000001cb7dd0c040] Opening 'C:/Users/eddari/Desktop/projects/Connect4/Assets/frame0012.png' for reading
[file @ 000001cb7dd20d80] Setting default whitelist 'file,crypto,data'
[AVIOContext @ 000001cb7dd2ec80] Statistics: 282724 bytes read, 0 seeks
[image2 @ 000001cb7dd0c040] Opening 'C:/Users/eddari/Desktop/projects/Connect4/Assets/frame0013.png' for reading
[file @ 000001cb7dd20d80] Setting default whitelist 'file,crypto,data'
[AVIOContext @ 000001cb7dd2ec80] Statistics: 339591 bytes read, 0 seeks
[image2 @ 000001cb7dd0c040] Opening 'C:/Users/eddari/Desktop/projects/Connect4/Assets/frame0014.png' for reading
[file @ 000001cb7dd20d80] Setting default whitelist 'file,crypto,data'
[AVIOContext @ 000001cb7dd2ec80] Statistics: 416100 bytes read, 0 seeks
[image2 @ 000001cb7dd0c040] Opening 'C:/Users/eddari/Desktop/projects/Connect4/Assets/frame0015.png' for reading
[file @ 000001cb7dd20d80] Setting default whitelist 'file,crypto,data'
[AVIOContext @ 000001cb7dd2ec80] Statistics: 474036 bytes read, 0 seeks
[image2 @ 000001cb7dd0c040] Opening 'C:/Users/eddari/Desktop/projects/Connect4/Assets/frame0016.png' for reading
[file @ 000001cb7dd20d80] Setting default whitelist 'file,crypto,data'
[AVIOContext @ 000001cb7dd2ec80] Statistics: 522293 bytes read, 0 seeks
[image2 @ 000001cb7dd0c040] Opening 'C:/Users/eddari/Desktop/projects/Connect4/Assets/frame0017.png' for reading
[file @ 000001cb7dd20d80] Setting default whitelist 'file,crypto,data'
[AVIOContext @ 000001cb7dd2ec80] Statistics: 533803 bytes read, 0 seeks
[image2 @ 000001cb7dd0c040] Opening 'C:/Users/eddari/Desktop/projects/Connect4/Assets/frame0018.png' for reading
[file @ 000001cb7dd20d80] Setting default whitelist 'file,crypto,data'
[AVIOContext @ 000001cb7dd2ec80] Statistics: 587114 bytes read, 0 seeks
[image2 @ 000001cb7dd0c040] Opening 'C:/Users/eddari/Desktop/projects/Connect4/Assets/frame0019.png' for reading
[file @ 000001cb7dd20d80] Setting default whitelist 'file,crypto,data'
[AVIOContext @ 000001cb7dd2ec80] Statistics: 605263 bytes read, 0 seeks
[image2 @ 000001cb7dd0c040] Probe buffer size limit of 5000000 bytes reached
Input #0, image2, from 'C:/Users/eddari/Desktop/projects/Connect4/Assets/frame%04d.png':
  Duration: 00:00:02.44, start: 0.000000, bitrate: N/A
  Stream #0:0, 20, 1/25: Video: png, 1 reference frame, rgba(pc), 1920x1080 [SAR 3937:3937 DAR 16:9], 0/1, 25 fps, 25 tbr, 25 tbn
Successfully opened the file.
Parsing a group of options: output url C:/Users/eddari/Desktop/projects/Connect4/Assets/palette.png.
Applying option vf (set video filters) with argument palettegen.
Successfully parsed a group of options.
Opening an output file: C:/Users/eddari/Desktop/projects/Connect4/Assets/palette.png.
Successfully opened the file.
detected 4 logical cores
Stream mapping:
  Stream #0:0 -> #0:0 (png (native) -> png (native))
cur_dts is invalid st:0 (0) [init:0 i_done:0 finish:0] (this is harmless if it occurs once at the start per stream)
    Last message repeated 4 times
[graph 0 input from stream 0:0 @ 000001cb7dd20780] Setting 'video_size' to value '1920x1080'
[graph 0 input from stream 0:0 @ 000001cb7dd20780] Setting 'pix_fmt' to value '26'
[graph 0 input from stream 0:0 @ 000001cb7dd20780] Setting 'time_base' to value '1/24'
[graph 0 input from stream 0:0 @ 000001cb7dd20780] Setting 'pixel_aspect' to value '3937/3937'
[graph 0 input from stream 0:0 @ 000001cb7dd20780] Setting 'frame_rate' to value '24/1'
[graph 0 input from stream 0:0 @ 000001cb7dd20780] w:1920 h:1080 pixfmt:rgba tb:1/24 fr:24/1 sar:3937/3937
[format @ 000001cb7eb3ee80] Setting 'pix_fmts' to value 'rgb24|rgba|rgb48be|rgba64be|pal8|gray|ya8|gray16be|ya16be|monob'
[auto_scale_0 @ 000001cb7dd2e900] w:iw h:ih flags:'' interl:0
[Parsed_palettegen_0 @ 000001cb7dd16ac0] auto-inserting filter 'auto_scale_0' between the filter 'graph 0 input from stream 0:0' and the filter 'Parsed_palettegen_0'
[auto_scale_1 @ 000001cb7dd29a40] w:iw h:ih flags:'' interl:0
[format @ 000001cb7eb3ee80] auto-inserting filter 'auto_scale_1' between the filter 'Parsed_palettegen_0' and the filter 'format'
[AVFilterGraph @ 000001cb7dd9ef00] query_formats: 4 queried, 3 merged, 2 already done, 0 delayed
[auto_scale_1 @ 000001cb7dd29a40] picking rgba out of 10 ref:bgra alpha:1
[swscaler @ 000001cb7ee07300] [swscaler @ 000001cb7ee14300] Forcing full internal H chroma due to input having non subsampled chroma
[swscaler @ 000001cb7ee07300] [swscaler @ 000001cb7ee23100] Forcing full internal H chroma due to input having non subsampled chroma
[swscaler @ 000001cb7ee07300] [swscaler @ 000001cb7ee63880] Forcing full internal H chroma due to input having non subsampled chroma
[swscaler @ 000001cb7ee07300] [swscaler @ 000001cb7ee77480] Forcing full internal H chroma due to input having non subsampled chroma
[swscaler @ 000001cb7ee07300] [swscaler @ 000001cb7eea8c40] Forcing full internal H chroma due to input having non subsampled chroma
[auto_scale_0 @ 000001cb7dd2e900] w:1920 h:1080 fmt:rgba sar:3937/3937 -> w:1920 h:1080 fmt:bgra sar:1/1 flags:0x0
[swscaler @ 000001cb7eecb300] [swscaler @ 000001cb7ef09b40] Forcing full internal H chroma due to input having non subsampled chroma
[swscaler @ 000001cb7eecb300] [swscaler @ 000001cb7ef1ab40] Forcing full internal H chroma due to input having non subsampled chroma
[swscaler @ 000001cb7eecb300] [swscaler @ 000001cb7ef2db40] Forcing full internal H chroma due to input having non subsampled chroma
[swscaler @ 000001cb7eecb300] [swscaler @ 000001cb02016100] Forcing full internal H chroma due to input having non subsampled chroma
[swscaler @ 000001cb7eecb300] [swscaler @ 000001cb02029100] Forcing full internal H chroma due to input having non subsampled chroma
[auto_scale_1 @ 000001cb7dd29a40] w:16 h:16 fmt:bgra sar:1/1 -> w:16 h:16 fmt:rgba sar:1/1 flags:0x0
cur_dts is invalid st:0 (0) [init:0 i_done:0 finish:0] (this is harmless if it occurs once at the start per stream)
    Last message repeated 15 times
[image2 @ 000001cb7dd0c040] Opening 'C:/Users/eddari/Desktop/projects/Connect4/Assets/frame0020.png' for reading
[file @ 000001cb7eec9480] Setting default whitelist 'file,crypto,data'
[AVIOContext @ 000001cb7e963280] Statistics: 704227 bytes read, 0 seeks
cur_dts is invalid st:0 (0) [init:0 i_done:0 finish:0] (this is harmless if it occurs once at the start per stream)
[image2 @ 000001cb7dd0c040] Opening 'C:/Users/eddari/Desktop/projects/Connect4/Assets/frame0021.png' for reading
[file @ 000001cb7eec8a40] Setting default whitelist 'file,crypto,data'
[AVIOContext @ 000001cb7ebb0480] Statistics: 764488 bytes read, 0 seeks
cur_dts is invalid st:0 (0) [init:0 i_done:0 finish:0] (this is harmless if it occurs once at the start per stream)
[image2 @ 000001cb7dd0c040] Opening 'C:/Users/eddari/Desktop/projects/Connect4/Assets/frame0022.png' for reading
[file @ 000001cb7eec9480] Setting default whitelist 'file,crypto,data'
[AVIOContext @ 000001cb7ebb0b80] Statistics: 765511 bytes read, 0 seeks
cur_dts is invalid st:0 (0) [init:0 i_done:0 finish:0] (this is harmless if it occurs once at the start per stream)
[image2 @ 000001cb7dd0c040] Opening 'C:/Users/eddari/Desktop/projects/Connect4/Assets/frame0023.png' for reading
[file @ 000001cb7eec9680] Setting default whitelist 'file,crypto,data'
[AVIOContext @ 000001cb7ebb0b80] Statistics: 718770 bytes read, 0 seeks
cur_dts is invalid st:0 (0) [init:0 i_done:0 finish:0] (this is harmless if it occurs once at the start per stream)
[image2 @ 000001cb7dd0c040] Opening 'C:/Users/eddari/Desktop/projects/Connect4/Assets/frame0024.png' for reading
[file @ 000001cb7eec9680] Setting default whitelist 'file,crypto,data'
[AVIOContext @ 000001cb7ebb0a40] Statistics: 746403 bytes read, 0 seeks
cur_dts is invalid st:0 (0) [init:0 i_done:0 finish:0] (this is harmless if it occurs once at the start per stream)
[image2 @ 000001cb7dd0c040] Opening 'C:/Users/eddari/Desktop/projects/Connect4/Assets/frame0025.png' for reading
[file @ 000001cb7eec9680] Setting default whitelist 'file,crypto,data'
[AVIOContext @ 000001cb7ebb0a40] Statistics: 720126 bytes read, 0 seeks
cur_dts is invalid st:0 (0) [init:0 i_done:0 finish:0] (this is harmless if it occurs once at the start per stream)
[image2 @ 000001cb7dd0c040] Opening 'C:/Users/eddari/Desktop/projects/Connect4/Assets/frame0026.png' for reading
[file @ 000001cb7eec9480] Setting default whitelist 'file,crypto,data'
[AVIOContext @ 000001cb7ebb08c0] Statistics: 745861 bytes read, 0 seeks
cur_dts is invalid st:0 (0) [init:0 i_done:0 finish:0] (this is harmless if it occurs once at the start per stream)
[image2 @ 000001cb7dd0c040] Opening 'C:/Users/eddari/Desktop/projects/Connect4/Assets/frame0027.png' for reading
[file @ 000001cb7eec9480] Setting default whitelist 'file,crypto,data'
[AVIOContext @ 000001cb7ebb0e80] Statistics: 771076 bytes read, 0 seeks
cur_dts is invalid st:0 (0) [init:0 i_done:0 finish:0] (this is harmless if it occurs once at the start per stream)
[image2 @ 000001cb7dd0c040] Opening 'C:/Users/eddari/Desktop/projects/Connect4/Assets/frame0028.png' for reading
[file @ 000001cb7eec8a40] Setting default whitelist 'file,crypto,data'
[AVIOContext @ 000001cb7ebb0d00] Statistics: 709107 bytes read, 0 seeks
cur_dts is invalid st:0 (0) [init:0 i_done:0 finish:0] (this is harmless if it occurs once at the start per stream)
[image2 @ 000001cb7dd0c040] Opening 'C:/Users/eddari/Desktop/projects/Connect4/Assets/frame0029.png' for reading
[file @ 000001cb7eec9480] Setting default whitelist 'file,crypto,data'
[AVIOContext @ 000001cb7ebb05c0] Statistics: 565876 bytes read, 0 seeks
cur_dts is invalid st:0 (0) [init:0 i_done:0 finish:0] (this is harmless if it occurs once at the start per stream)
[image2 @ 000001cb7dd0c040] Opening 'C:/Users/eddari/Desktop/projects/Connect4/Assets/frame0030.png' for reading
[file @ 000001cb7eec9480] Setting default whitelist 'file,crypto,data'
[AVIOContext @ 000001cb03a063c0] Statistics: 553277 bytes read, 0 seeks
cur_dts is invalid st:0 (0) [init:0 i_done:0 finish:0] (this is harmless if it occurs once at the start per stream)
[image2 @ 000001cb7dd0c040] Opening 'C:/Users/eddari/Desktop/projects/Connect4/Assets/frame0031.png' for reading
[file @ 000001cb7eec9480] Setting default whitelist 'file,crypto,data'
[AVIOContext @ 000001cb03a063c0] Statistics: 528892 bytes read, 0 seeks
cur_dts is invalid st:0 (0) [init:0 i_done:0 finish:0] (this is harmless if it occurs once at the start per stream)
[image2 @ 000001cb7dd0c040] Opening 'C:/Users/eddari/Desktop/projects/Connect4/Assets/frame0032.png' for reading
[file @ 000001cb7eec9480] Setting default whitelist 'file,crypto,data'
[AVIOContext @ 000001cb03a06680] Statistics: 536136 bytes read, 0 seeks
cur_dts is invalid st:0 (0) [init:0 i_done:0 finish:0] (this is harmless if it occurs once at the start per stream)
[image2 @ 000001cb7dd0c040] Opening 'C:/Users/eddari/Desktop/projects/Connect4/Assets/frame0033.png' for reading
[file @ 000001cb7eec9680] Setting default whitelist 'file,crypto,data'
[AVIOContext @ 000001cb03a06800] Statistics: 636288 bytes read, 0 seeks
cur_dts is invalid st:0 (0) [init:0 i_done:0 finish:0] (this is harmless if it occurs once at the start per stream)
[image2 @ 000001cb7dd0c040] Opening 'C:/Users/eddari/Desktop/projects/Connect4/Assets/frame0034.png' for reading
[file @ 000001cb7eec9480] Setting default whitelist 'file,crypto,data'
[AVIOContext @ 000001cb03a06980] Statistics: 674027 bytes read, 0 seeks
cur_dts is invalid st:0 (0) [init:0 i_done:0 finish:0] (this is harmless if it occurs once at the start per stream)
[image2 @ 000001cb7dd0c040] Opening 'C:/Users/eddari/Desktop/projects/Connect4/Assets/frame0035.png' for reading
[file @ 000001cb7eec9480] Setting default whitelist 'file,crypto,data'
[AVIOContext @ 000001cb03a06680] Statistics: 703517 bytes read, 0 seeks
cur_dts is invalid st:0 (0) [init:0 i_done:0 finish:0] (this is harmless if it occurs once at the start per stream)
[image2 @ 000001cb7dd0c040] Opening 'C:/Users/eddari/Desktop/projects/Connect4/Assets/frame0036.png' for reading
[file @ 000001cb7eec9480] Setting default whitelist 'file,crypto,data'
[AVIOContext @ 000001cb03a06680] Statistics: 669490 bytes read, 0 seeks
cur_dts is invalid st:0 (0) [init:0 i_done:0 finish:0] (this is harmless if it occurs once at the start per stream)
[image2 @ 000001cb7dd0c040] Opening 'C:/Users/eddari/Desktop/projects/Connect4/Assets/frame0037.png' for reading
[file @ 000001cb7eec8880] Setting default whitelist 'file,crypto,data'
[AVIOContext @ 000001cb03a06800] Statistics: 612473 bytes read, 0 seeks
cur_dts is invalid st:0 (0) [init:0 i_done:0 finish:0] (this is harmless if it occurs once at the start per stream)
[image2 @ 000001cb7dd0c040] Opening 'C:/Users/eddari/Desktop/projects/Connect4/Assets/frame0038.png' for reading
[file @ 000001cb7eec9480] Setting default whitelist 'file,crypto,data'
[AVIOContext @ 000001cb03a06680] Statistics: 585843 bytes read, 0 seeks
cur_dts is invalid st:0 (0) [init:0 i_done:0 finish:0] (this is harmless if it occurs once at the start per stream)
[image2 @ 000001cb7dd0c040] Opening 'C:/Users/eddari/Desktop/projects/Connect4/Assets/frame0039.png' for reading
[file @ 000001cb7eec8880] Setting default whitelist 'file,crypto,data'
[AVIOContext @ 000001cb03a060c0] Statistics: 545896 bytes read, 0 seeks
cur_dts is invalid st:0 (0) [init:0 i_done:0 finish:0] (this is harmless if it occurs once at the start per stream)
[image2 @ 000001cb7dd0c040] Opening 'C:/Users/eddari/Desktop/projects/Connect4/Assets/frame0040.png' for reading
[file @ 000001cb7eec9480] Setting default whitelist 'file,crypto,data'
[AVIOContext @ 000001cb03a060c0] Statistics: 536791 bytes read, 0 seeks
cur_dts is invalid st:0 (0) [init:0 i_done:0 finish:0] (this is harmless if it occurs once at the start per stream)
[image2 @ 000001cb7dd0c040] Opening 'C:/Users/eddari/Desktop/projects/Connect4/Assets/frame0041.png' for reading
[file @ 000001cb7eec9480] Setting default whitelist 'file,crypto,data'
[AVIOContext @ 000001cb03a063c0] Statistics: 529552 bytes read, 0 seeks
cur_dts is invalid st:0 (0) [init:0 i_done:0 finish:0] (this is harmless if it occurs once at the start per stream)
[image2 @ 000001cb7dd0c040] Opening 'C:/Users/eddari/Desktop/projects/Connect4/Assets/frame0042.png' for reading
[file @ 000001cb7eec8880] Setting default whitelist 'file,crypto,data'
[AVIOContext @ 000001cb03a05f40] Statistics: 460102 bytes read, 0 seeks
cur_dts is invalid st:0 (0) [init:0 i_done:0 finish:0] (this is harmless if it occurs once at the start per stream)
[image2 @ 000001cb7dd0c040] Opening 'C:/Users/eddari/Desktop/projects/Connect4/Assets/frame0043.png' for reading
[file @ 000001cb7eec9480] Setting default whitelist 'file,crypto,data'
[AVIOContext @ 000001cb03a060c0] Statistics: 429851 bytes read, 0 seeks
cur_dts is invalid st:0 (0) [init:0 i_done:0 finish:0] (this is harmless if it occurs once at the start per stream)
[image2 @ 000001cb7dd0c040] Opening 'C:/Users/eddari/Desktop/projects/Connect4/Assets/frame0044.png' for reading
[file @ 000001cb7eec9480] Setting default whitelist 'file,crypto,data'
[AVIOContext @ 000001cb03a06240] Statistics: 313108 bytes read, 0 seeks
cur_dts is invalid st:0 (0) [init:0 i_done:0 finish:0] (this is harmless if it occurs once at the start per stream)
[image2 @ 000001cb7dd0c040] Opening 'C:/Users/eddari/Desktop/projects/Connect4/Assets/frame0045.png' for reading
[file @ 000001cb7eec9480] Setting default whitelist 'file,crypto,data'
[AVIOContext @ 000001cb03a060c0] Statistics: 308617 bytes read, 0 seeks
cur_dts is invalid st:0 (0) [init:0 i_done:0 finish:0] (this is harmless if it occurs once at the start per stream)
[image2 @ 000001cb7dd0c040] Opening 'C:/Users/eddari/Desktop/projects/Connect4/Assets/frame0046.png' for reading
[file @ 000001cb7eec9480] Setting default whitelist 'file,crypto,data'
[AVIOContext @ 000001cb03a05e00] Statistics: 273720 bytes read, 0 seeks
cur_dts is invalid st:0 (0) [init:0 i_done:0 finish:0] (this is harmless if it occurs once at the start per stream)
[image2 @ 000001cb7dd0c040] Opening 'C:/Users/eddari/Desktop/projects/Connect4/Assets/frame0047.png' for reading
[file @ 000001cb7eec9480] Setting default whitelist 'file,crypto,data'
[AVIOContext @ 000001cb7ebb0880] Statistics: 142783 bytes read, 0 seeks
cur_dts is invalid st:0 (0) [init:0 i_done:0 finish:0] (this is harmless if it occurs once at the start per stream)
[image2 @ 000001cb7dd0c040] Opening 'C:/Users/eddari/Desktop/projects/Connect4/Assets/frame0048.png' for reading
[file @ 000001cb7eec9680] Setting default whitelist 'file,crypto,data'
[AVIOContext @ 000001cb7ebb0700] Statistics: 158134 bytes read, 0 seeks
cur_dts is invalid st:0 (0) [init:0 i_done:0 finish:0] (this is harmless if it occurs once at the start per stream)
[image2 @ 000001cb7dd0c040] Opening 'C:/Users/eddari/Desktop/projects/Connect4/Assets/frame0049.png' for reading
[file @ 000001cb7eec9480] Setting default whitelist 'file,crypto,data'
[AVIOContext @ 000001cb7ebb0b40] Statistics: 163508 bytes read, 0 seeks
cur_dts is invalid st:0 (0) [init:0 i_done:0 finish:0] (this is harmless if it occurs once at the start per stream)
[image2 @ 000001cb7dd0c040] Opening 'C:/Users/eddari/Desktop/projects/Connect4/Assets/frame0050.png' for reading
[file @ 000001cb7eec9480] Setting default whitelist 'file,crypto,data'
[AVIOContext @ 000001cb7ebb0b40] Statistics: 148889 bytes read, 0 seeks
cur_dts is invalid st:0 (0) [init:0 i_done:0 finish:0] (this is harmless if it occurs once at the start per stream)
[image2 @ 000001cb7dd0c040] Opening 'C:/Users/eddari/Desktop/projects/Connect4/Assets/frame0051.png' for reading
[file @ 000001cb7eec9480] Setting default whitelist 'file,crypto,data'
[AVIOContext @ 000001cb7ebb0580] Statistics: 111545 bytes read, 0 seeks
cur_dts is invalid st:0 (0) [init:0 i_done:0 finish:0] (this is harmless if it occurs once at the start per stream)
[image2 @ 000001cb7dd0c040] Opening 'C:/Users/eddari/Desktop/projects/Connect4/Assets/frame0052.png' for reading
[file @ 000001cb7eec8a40] Setting default whitelist 'file,crypto,data'
[AVIOContext @ 000001cb7ebb0cc0] Statistics: 80519 bytes read, 0 seeks
cur_dts is invalid st:0 (0) [init:0 i_done:0 finish:0] (this is harmless if it occurs once at the start per stream)
[image2 @ 000001cb7dd0c040] Opening 'C:/Users/eddari/Desktop/projects/Connect4/Assets/frame0053.png' for reading
[file @ 000001cb7eec9480] Setting default whitelist 'file,crypto,data'
[AVIOContext @ 000001cb7ebb0e40] Statistics: 48168 bytes read, 0 seeks
cur_dts is invalid st:0 (0) [init:0 i_done:0 finish:0] (this is harmless if it occurs once at the start per stream)
[image2 @ 000001cb7dd0c040] Opening 'C:/Users/eddari/Desktop/projects/Connect4/Assets/frame0054.png' for reading
[file @ 000001cb7eec9480] Setting default whitelist 'file,crypto,data'
[AVIOContext @ 000001cb7ebb0880] Statistics: 36715 bytes read, 0 seeks
cur_dts is invalid st:0 (0) [init:0 i_done:0 finish:0] (this is harmless if it occurs once at the start per stream)
[image2 @ 000001cb7dd0c040] Opening 'C:/Users/eddari/Desktop/projects/Connect4/Assets/frame0055.png' for reading
[file @ 000001cb7eec9480] Setting default whitelist 'file,crypto,data'
[AVIOContext @ 000001cb7ebb0440] Statistics: 36715 bytes read, 0 seeks
cur_dts is invalid st:0 (0) [init:0 i_done:0 finish:0] (this is harmless if it occurs once at the start per stream)
[image2 @ 000001cb7dd0c040] Opening 'C:/Users/eddari/Desktop/projects/Connect4/Assets/frame0056.png' for reading
[file @ 000001cb7eec9480] Setting default whitelist 'file,crypto,data'
[AVIOContext @ 000001cb7ebb0e40] Statistics: 36715 bytes read, 0 seeks
cur_dts is invalid st:0 (0) [init:0 i_done:0 finish:0] (this is harmless if it occurs once at the start per stream)
[image2 @ 000001cb7dd0c040] Opening 'C:/Users/eddari/Desktop/projects/Connect4/Assets/frame0057.png' for reading
[file @ 000001cb7eec9480] Setting default whitelist 'file,crypto,data'
[AVIOContext @ 000001cb7ebb0a00] Statistics: 36715 bytes read, 0 seeks
cur_dts is invalid st:0 (0) [init:0 i_done:0 finish:0] (this is harmless if it occurs once at the start per stream)
[image2 @ 000001cb7dd0c040] Opening 'C:/Users/eddari/Desktop/projects/Connect4/Assets/frame0058.png' for reading
[file @ 000001cb7eec9480] Setting default whitelist 'file,crypto,data'
[AVIOContext @ 000001cb7ebb0e40] Statistics: 36715 bytes read, 0 seeks
cur_dts is invalid st:0 (0) [init:0 i_done:0 finish:0] (this is harmless if it occurs once at the start per stream)
[image2 @ 000001cb7dd0c040] Opening 'C:/Users/eddari/Desktop/projects/Connect4/Assets/frame0059.png' for reading
[file @ 000001cb7eec9480] Setting default whitelist 'file,crypto,data'
[AVIOContext @ 000001cb7ebb0880] Statistics: 36715 bytes read, 0 seeks
cur_dts is invalid st:0 (0) [init:0 i_done:0 finish:0] (this is harmless if it occurs once at the start per stream)
[image2 @ 000001cb7dd0c040] Opening 'C:/Users/eddari/Desktop/projects/Connect4/Assets/frame0060.png' for reading
[file @ 000001cb7eec9480] Setting default whitelist 'file,crypto,data'
[AVIOContext @ 000001cb7ebb0880] Statistics: 36715 bytes read, 0 seeks
cur_dts is invalid st:0 (0) [init:0 i_done:0 finish:0] (this is harmless if it occurs once at the start per stream)
    Last message repeated 4 times
[Parsed_palettegen_0 @ 000001cb7dd16ac0] 255(+1) colors generated out of 523631 colors; ratio=0.000487
cur_dts is invalid st:0 (0) [init:0 i_done:0 finish:0] (this is harmless if it occurs once at the start per stream)
Output #0, image2, to 'C:/Users/eddari/Desktop/projects/Connect4/Assets/palette.png':
  Metadata:
    encoder         : Lavf59.9.102
  Stream #0:0, 0, 1/24: Video: png, 1 reference frame, rgba(pc, gbr/unknown/unknown, progressive), 16x16 (0x0) [SAR 1:1 DAR 1:1], 0/1, q=2-31, 200 kb/s, 24 fps, 24 tbn
    Metadata:
      encoder         : Lavc59.14.100 png
Clipping frame in rate conversion by 0.000008
frame=    1 fps=0.6 q=0.0 size=N/A time=00:00:00.00 bitrate=N/A speed=   0x    cur_dts is invalid st:0 (0) [init:1 i_done:0 finish:0] (this is harmless if it occurs once at the start per stream)
[out_0_0 @ 000001cb7dd41380] EOF on sink link out_0_0:default.
No more output streams to write to, finishing.
[image2 @ 000001cb7edd9ac0] Opening 'C:/Users/eddari/Desktop/projects/Connect4/Assets/palette.png' for writing
[file @ 000001cb7eec9480] Setting default whitelist 'file,crypto,data'
[AVIOContext @ 000001cb7ebb0580] Statistics: 973 bytes written, 0 seeks, 1 writeouts
frame=    1 fps=0.6 q=-0.0 Lsize=N/A time=00:00:00.04 bitrate=N/A speed=0.0231x    
[AVIOContext @ 000001cb7dd0bd40] Statistics: 348 bytes written, 0 seeks, 2 writeouts
video:1kB audio:0kB subtitle:0kB other streams:0kB global headers:0kB muxing overhead: unknown
Input file #0 (C:/Users/eddari/Desktop/projects/Connect4/Assets/frame%04d.png):
  Input stream #0:0 (video): 61 packets read (22398589 bytes); 61 frames decoded; 
  Total: 61 packets (22398589 bytes) demuxed
Output file #0 (C:/Users/eddari/Desktop/projects/Connect4/Assets/palette.png):
  Output stream #0:0 (video): 1 frames encoded; 1 packets muxed (973 bytes); 
  Total: 1 packets (973 bytes) muxed
61 frames successfully decoded, 0 decoding errors
